<svg width="198" height="60" viewBox="0 0 198 60" fill="none" xmlns="http://www.w3.org/2000/svg">
<path fill-rule="evenodd" clip-rule="evenodd" d="M12.8567 14.8017L16.5664 16.5543L19.852 14.0897L19.2426 9.92725L12.8567 14.8017Z" fill="#F6A91C"/>
<path fill-rule="evenodd" clip-rule="evenodd" d="M8.59067 21.73L12.6448 21.8943L14.791 18.526L12.8567 14.8018L8.59067 21.73Z" fill="#F6A91C"/>
<path fill-rule="evenodd" clip-rule="evenodd" d="M19.2426 9.92752L22.0513 12.9672L25.8669 11.8444L26.9003 7.76416L19.2426 9.92752Z" fill="#F6A91C"/>
<path fill-rule="evenodd" clip-rule="evenodd" d="M26.9003 7.76416L28.4372 11.598L32.5707 12.0361L34.7965 8.61307L26.9003 7.76416Z" fill="#F6A91C"/>
<path fill-rule="evenodd" clip-rule="evenodd" d="M34.7965 8.61279L34.77 12.7204L38.5061 14.6921L41.8713 12.3371L34.7965 8.61279Z" fill="#F6A91C"/>
<path fill-rule="evenodd" clip-rule="evenodd" d="M41.8713 12.3369L40.4934 16.2803L43.1167 19.3199L47.1708 18.471L41.8713 12.3369Z" fill="#F6A91C"/>
<path fill-rule="evenodd" clip-rule="evenodd" d="M12.8567 45.0339L16.8048 43.5552L19.7195 45.7733L19.1896 49.9905L12.8567 45.0339Z" fill="#F6A91C"/>
<path fill-rule="evenodd" clip-rule="evenodd" d="M8.67017 38.0509L12.7508 37.9414L14.8175 41.3644L12.8567 45.0339L8.67017 38.0509Z" fill="#F6A91C"/>
<path fill-rule="evenodd" clip-rule="evenodd" d="M19.1896 49.9908L22.0778 47.0059L25.8404 48.156L26.8208 52.2363L19.1896 49.9908Z" fill="#F6A91C"/>
<path fill-rule="evenodd" clip-rule="evenodd" d="M26.8208 52.2362L28.3842 48.4298L32.5442 48.019L34.7435 51.4969L26.8208 52.2362Z" fill="#F6A91C"/>
<path fill-rule="evenodd" clip-rule="evenodd" d="M34.7435 51.4967V47.3891L38.4797 45.4722L41.8448 47.8272L34.7435 51.4967Z" fill="#F6A91C"/>
<path fill-rule="evenodd" clip-rule="evenodd" d="M41.8448 47.8272L40.5199 43.8838L43.1697 40.8989L47.0118 41.7478L41.8448 47.8272Z" fill="#F6A91C"/>
<path fill-rule="evenodd" clip-rule="evenodd" d="M8.59066 21.73L11.5849 24.797L10.9489 28.1653L7.05382 29.781L8.59066 21.73Z" fill="#F6A91C"/>
<path fill-rule="evenodd" clip-rule="evenodd" d="M7.05382 29.7808L10.9224 31.506L11.5584 35.2029L8.67015 38.0508L7.05382 29.7808Z" fill="#F6A91C"/>
<path fill-rule="evenodd" clip-rule="evenodd" d="M47.1708 18.4712L44.4415 21.4561L45.9519 25.6459L49.953 26.1662L47.1708 18.4712Z" fill="#F6A91C"/>
<path fill-rule="evenodd" clip-rule="evenodd" d="M49.953 26.166L46.3759 27.9734L46.3229 32.3001L49.8735 34.3813L49.953 26.166Z" fill="#F6A91C"/>
<path fill-rule="evenodd" clip-rule="evenodd" d="M47.0118 41.7477L49.8735 34.3813L45.9519 34.6004L44.3356 38.7355L47.0118 41.7477Z" fill="#F6A91C"/>
<path fill-rule="evenodd" clip-rule="evenodd" d="M30.9544 1.5752L30.1595 3.02656L31.4314 3.30041L32.0673 1.82165L30.9544 1.5752Z" fill="#F6A91C"/>
<path fill-rule="evenodd" clip-rule="evenodd" d="M32.2528 1.84912L31.6698 3.35526L32.9682 3.65649L33.3922 2.09558L32.2528 1.84912Z" fill="#F6A91C"/>
<path fill-rule="evenodd" clip-rule="evenodd" d="M33.5511 2.1499L33.1537 3.71081L34.5051 3.98465L34.7435 2.39636L33.5511 2.1499Z" fill="#F6A91C"/>
<path fill-rule="evenodd" clip-rule="evenodd" d="M30.08 3.19092L29.3116 4.58752L30.7689 4.91613L31.3784 3.46476L30.08 3.19092Z" fill="#F6A91C"/>
<path fill-rule="evenodd" clip-rule="evenodd" d="M31.5903 3.51953L31.0074 4.99828L32.4913 5.29951L32.9152 3.82076L31.5903 3.51953Z" fill="#F6A91C"/>
<path fill-rule="evenodd" clip-rule="evenodd" d="M33.1007 3.87549L32.7297 5.35424L34.2931 5.71024L34.4785 4.14933L33.1007 3.87549Z" fill="#F6A91C"/>
<path fill-rule="evenodd" clip-rule="evenodd" d="M29.1791 4.75146L30.6894 5.08008L29.8415 7.02436L28.0927 6.83267L29.1791 4.75146Z" fill="#F6A91C"/>
<path fill-rule="evenodd" clip-rule="evenodd" d="M30.9279 5.1626L30.1595 7.05212L31.9613 7.24381L32.4383 5.49121L30.9279 5.1626Z" fill="#F6A91C"/>
<path fill-rule="evenodd" clip-rule="evenodd" d="M32.6767 5.5459L32.2528 7.27111L34.1076 7.49019L34.2666 5.87451L32.6767 5.5459Z" fill="#F6A91C"/>
<path d="M30.7954 1L26.9798 7.4627L34.717 8.31162L35.194 1.98584L30.7954 1Z" stroke="#F6A91C" stroke-width="0.596967" stroke-miterlimit="22.9256"/>
<path fill-rule="evenodd" clip-rule="evenodd" d="M40.7849 4.25879L39.5131 5.35416L40.6259 6.09354L41.7388 4.91601L40.7849 4.25879Z" fill="#F6A91C"/>
<path fill-rule="evenodd" clip-rule="evenodd" d="M41.9243 5.02539L40.8114 6.2303L41.9508 6.96968L42.9047 5.68261L41.9243 5.02539Z" fill="#F6A91C"/>
<path fill-rule="evenodd" clip-rule="evenodd" d="M43.0372 5.79248L42.1363 7.10693L43.3022 7.90107L44.0706 6.4497L43.0372 5.79248Z" fill="#F6A91C"/>
<path fill-rule="evenodd" clip-rule="evenodd" d="M39.3806 5.46387L38.1617 6.53186L39.4336 7.38077L40.5199 6.20324L39.3806 5.46387Z" fill="#F6A91C"/>
<path fill-rule="evenodd" clip-rule="evenodd" d="M40.7054 6.36719L39.6455 7.51733L40.9439 8.39363L41.8448 7.10656L40.7054 6.36719Z" fill="#F6A91C"/>
<path fill-rule="evenodd" clip-rule="evenodd" d="M42.0304 7.24365L41.156 8.53072L42.5074 9.4344L43.2228 8.0378L42.0304 7.24365Z" fill="#F6A91C"/>
<path fill-rule="evenodd" clip-rule="evenodd" d="M37.9762 6.64111L39.3011 7.51741L37.8172 9.02355L36.2274 8.20202L37.9762 6.64111Z" fill="#F6A91C"/>
<path fill-rule="evenodd" clip-rule="evenodd" d="M39.513 7.68164L38.1087 9.18778L39.7515 10.0367L40.8379 8.53055L39.513 7.68164Z" fill="#F6A91C"/>
<path fill-rule="evenodd" clip-rule="evenodd" d="M41.0499 8.66748L40.0165 10.1736L41.7123 11.0499L42.4013 9.59855L41.0499 8.66748Z" fill="#F6A91C"/>
<path d="M40.8379 3.65625L34.9555 8.36635L42.0038 12.0632L44.6535 6.23038L40.8379 3.65625Z" stroke="#F6A91C" stroke-width="0.596967" stroke-miterlimit="22.9256"/>
<path fill-rule="evenodd" clip-rule="evenodd" d="M20.8854 2.72538L20.6734 4.34106L21.9188 4.12198L21.9718 2.53369L20.8854 2.72538Z" fill="#F6A91C"/>
<path fill-rule="evenodd" clip-rule="evenodd" d="M22.1573 2.50618V4.09447L23.4292 3.8754L23.2702 2.28711L22.1573 2.50618Z" fill="#F6A91C"/>
<path fill-rule="evenodd" clip-rule="evenodd" d="M23.4557 2.25956L23.6411 3.84785L24.9925 3.60139L24.6215 2.06787L23.4557 2.25956Z" fill="#F6A91C"/>
<path fill-rule="evenodd" clip-rule="evenodd" d="M20.6469 4.53259L20.435 6.12088L21.8923 5.84704L21.9188 4.28613L20.6469 4.53259Z" fill="#F6A91C"/>
<path fill-rule="evenodd" clip-rule="evenodd" d="M22.1573 4.28601L22.1308 5.81953L23.6146 5.54569L23.4557 4.03955L22.1573 4.28601Z" fill="#F6A91C"/>
<path fill-rule="evenodd" clip-rule="evenodd" d="M23.6676 4.01212L23.8531 5.51826L25.39 5.24442L25.019 3.73828L23.6676 4.01212Z" fill="#F6A91C"/>
<path fill-rule="evenodd" clip-rule="evenodd" d="M20.382 6.31242L21.8658 6.03857L21.8128 8.11978L20.117 8.6127L20.382 6.31242Z" fill="#F6A91C"/>
<path fill-rule="evenodd" clip-rule="evenodd" d="M22.1308 6.01115L22.1043 8.03759L23.8266 7.54467L23.6411 5.7373L22.1308 6.01115Z" fill="#F6A91C"/>
<path fill-rule="evenodd" clip-rule="evenodd" d="M23.8531 5.68253L24.0651 7.46252L25.8669 6.94221L25.4165 5.40869L23.8531 5.68253Z" fill="#F6A91C"/>
<path d="M20.541 2.25944L19.1631 9.59844L26.7148 7.46246L24.913 1.49268L20.541 2.25944Z" stroke="#F6A91C" stroke-width="0.596967" stroke-miterlimit="22.9256"/>
<path fill-rule="evenodd" clip-rule="evenodd" d="M11.7439 7.18888L12.1148 8.85932L13.2542 8.17472L12.7243 6.58643L11.7439 7.18888Z" fill="#F6A91C"/>
<path fill-rule="evenodd" clip-rule="evenodd" d="M12.9097 6.50435L13.4397 8.03787L14.6056 7.35327L13.9166 5.87451L12.9097 6.50435Z" fill="#F6A91C"/>
<path fill-rule="evenodd" clip-rule="evenodd" d="M14.0756 5.79244L14.8175 7.24381L16.0099 6.50443L15.1355 5.1626L14.0756 5.79244Z" fill="#F6A91C"/>
<path fill-rule="evenodd" clip-rule="evenodd" d="M12.1413 9.02348L12.5123 10.6391L13.8106 9.87239L13.3072 8.33887L12.1413 9.02348Z" fill="#F6A91C"/>
<path fill-rule="evenodd" clip-rule="evenodd" d="M13.5192 8.22961L14.0491 9.73575L15.374 8.91422L14.685 7.49023L13.5192 8.22961Z" fill="#F6A91C"/>
<path fill-rule="evenodd" clip-rule="evenodd" d="M14.897 7.40787L15.586 8.80447L16.9903 7.95556L16.1159 6.64111L14.897 7.40787Z" fill="#F6A91C"/>
<path fill-rule="evenodd" clip-rule="evenodd" d="M12.5123 10.8582L13.8636 10.0366L14.5261 12.0904L13.0687 13.1858L12.5123 10.8582Z" fill="#F6A91C"/>
<path fill-rule="evenodd" clip-rule="evenodd" d="M14.1021 9.92753L14.7645 11.8992L16.2749 10.7764L15.4535 9.07861L14.1021 9.92753Z" fill="#F6A91C"/>
<path fill-rule="evenodd" clip-rule="evenodd" d="M15.6655 8.96903L16.4869 10.5847L18.0502 9.43456L17.0963 8.12012L15.6655 8.96903Z" fill="#F6A91C"/>
<path d="M11.2404 6.88781L12.6448 14.4733L19.0571 9.62624L15.215 4.50537L11.2404 6.88781Z" stroke="#F6A91C" stroke-width="0.596967" stroke-miterlimit="22.9256"/>
<path fill-rule="evenodd" clip-rule="evenodd" d="M56.3124 29.8355L54.8285 29.1235L54.6695 30.4654L56.1799 30.9857L56.3124 29.8355Z" fill="#F6A91C"/>
<path fill-rule="evenodd" clip-rule="evenodd" d="M56.1534 31.2048L54.6165 30.7119L54.4575 32.0811L55.9944 32.3824L56.1534 31.2048Z" fill="#F6A91C"/>
<path fill-rule="evenodd" clip-rule="evenodd" d="M55.9944 32.5741L54.431 32.3003L54.272 33.7517L55.8354 33.8338L55.9944 32.5741Z" fill="#F6A91C"/>
<path fill-rule="evenodd" clip-rule="evenodd" d="M54.6695 29.0689L53.2122 28.3843L53.0267 29.9178L54.5105 30.4107L54.6695 29.0689Z" fill="#F6A91C"/>
<path fill-rule="evenodd" clip-rule="evenodd" d="M54.4575 30.6574L52.9737 30.1919L52.8147 31.7802L54.2985 32.054L54.4575 30.6574Z" fill="#F6A91C"/>
<path fill-rule="evenodd" clip-rule="evenodd" d="M54.2721 32.2729L52.7882 31.999L52.5762 33.6421L54.1131 33.7242L54.2721 32.2729Z" fill="#F6A91C"/>
<path fill-rule="evenodd" clip-rule="evenodd" d="M53.0267 28.2749L52.8412 29.8631L50.9069 29.1785L50.9334 27.3164L53.0267 28.2749Z" fill="#F6A91C"/>
<path fill-rule="evenodd" clip-rule="evenodd" d="M52.7882 30.1367L50.8804 29.4795L50.8539 31.3964L52.6292 31.725L52.7882 30.1367Z" fill="#F6A91C"/>
<path fill-rule="evenodd" clip-rule="evenodd" d="M52.6027 31.9716L50.8539 31.6704L50.8274 33.6421H52.4172L52.6027 31.9716Z" fill="#F6A91C"/>
<path d="M56.8423 29.6168L50.218 26.2212L50.0855 34.3543L56.2859 34.2722L56.8423 29.6168Z" stroke="#F6A91C" stroke-width="0.596967" stroke-miterlimit="22.9256"/>
<path fill-rule="evenodd" clip-rule="evenodd" d="M54.3781 39.8855L53.2652 38.7354L52.6822 39.9129L53.8746 40.8987L54.3781 39.8855Z" fill="#F6A91C"/>
<path fill-rule="evenodd" clip-rule="evenodd" d="M53.7686 41.0634L52.5762 40.105L51.9668 41.2825L53.2652 42.104L53.7686 41.0634Z" fill="#F6A91C"/>
<path fill-rule="evenodd" clip-rule="evenodd" d="M53.1856 42.2409L51.8873 41.4741L51.2513 42.7064L52.6557 43.3363L53.1856 42.2409Z" fill="#F6A91C"/>
<path fill-rule="evenodd" clip-rule="evenodd" d="M53.1327 38.6262L52.0728 37.5034L51.3839 38.8453L52.5497 39.8037L53.1327 38.6262Z" fill="#F6A91C"/>
<path fill-rule="evenodd" clip-rule="evenodd" d="M52.4437 39.9955L51.2513 39.0645L50.5889 40.4063L51.8343 41.2004L52.4437 39.9955Z" fill="#F6A91C"/>
<path fill-rule="evenodd" clip-rule="evenodd" d="M51.7283 41.3918L50.4829 40.625L49.7675 42.049L51.1189 42.6514L51.7283 41.3918Z" fill="#F6A91C"/>
<path fill-rule="evenodd" clip-rule="evenodd" d="M51.9403 37.3392L51.2514 38.7084L49.7145 37.4214L50.3504 35.7783L51.9403 37.3392Z" fill="#F6A91C"/>
<path fill-rule="evenodd" clip-rule="evenodd" d="M51.1189 38.9271L49.6085 37.6948L48.9726 39.3927L50.4299 40.3237L51.1189 38.9271Z" fill="#F6A91C"/>
<path fill-rule="evenodd" clip-rule="evenodd" d="M50.3504 40.5428L48.8666 39.6665L48.2042 41.4191L49.6085 41.9668L50.3504 40.5428Z" fill="#F6A91C"/>
<path d="M54.9345 39.8859L50.059 34.5186L47.3033 41.7754L52.8942 43.884L54.9345 39.8859Z" stroke="#F6A91C" stroke-width="0.596967" stroke-miterlimit="22.9256"/>
<path fill-rule="evenodd" clip-rule="evenodd" d="M54.4043 19.5118L52.7615 19.4297L53.106 20.7168L54.6958 20.6346L54.4043 19.5118Z" fill="#F6A91C"/>
<path fill-rule="evenodd" clip-rule="evenodd" d="M54.7225 20.8535L53.1592 20.9631L53.4771 22.3049L55.014 22.0037L54.7225 20.8535Z" fill="#F6A91C"/>
<path fill-rule="evenodd" clip-rule="evenodd" d="M55.067 22.1953L53.5301 22.4965L53.8746 23.8931L55.3584 23.4002L55.067 22.1953Z" fill="#F6A91C"/>
<path fill-rule="evenodd" clip-rule="evenodd" d="M52.6027 19.4025L51.0129 19.3203L51.3839 20.8265L52.9207 20.7443L52.6027 19.4025Z" fill="#F6A91C"/>
<path fill-rule="evenodd" clip-rule="evenodd" d="M52.9737 20.9634L51.4368 21.1003L51.8343 22.6064L53.3182 22.3326L52.9737 20.9634Z" fill="#F6A91C"/>
<path fill-rule="evenodd" clip-rule="evenodd" d="M53.3712 22.5513L51.8873 22.8525L52.2848 24.4408L53.7156 23.9479L53.3712 22.5513Z" fill="#F6A91C"/>
<path fill-rule="evenodd" clip-rule="evenodd" d="M50.8274 19.2926L51.1984 20.8262L49.1316 20.9083L48.5486 19.1831L50.8274 19.2926Z" fill="#F6A91C"/>
<path fill-rule="evenodd" clip-rule="evenodd" d="M51.2514 21.1001L49.2641 21.2096L49.9 22.9896L51.6488 22.661L51.2514 21.1001Z" fill="#F6A91C"/>
<path fill-rule="evenodd" clip-rule="evenodd" d="M51.7283 22.8799L50.006 23.2633L50.6419 25.098L52.1258 24.5229L51.7283 22.8799Z" fill="#F6A91C"/>
<path d="M54.8285 19.1011L47.4887 18.4438L50.1915 26.0293L55.9414 23.6469L54.8285 19.1011Z" stroke="#F6A91C" stroke-width="0.596967" stroke-miterlimit="22.9256"/>
<path fill-rule="evenodd" clip-rule="evenodd" d="M48.9461 10.6118L47.4093 11.1321L48.1777 12.2275L49.6085 11.5429L48.9461 10.6118Z" fill="#F6A91C"/>
<path fill-rule="evenodd" clip-rule="evenodd" d="M49.7145 11.707L48.3102 12.419L49.0786 13.5144L50.377 12.6655L49.7145 11.707Z" fill="#F6A91C"/>
<path fill-rule="evenodd" clip-rule="evenodd" d="M50.4829 12.8301L49.1846 13.7064L50.006 14.8565L51.1984 13.8433L50.4829 12.8301Z" fill="#F6A91C"/>
<path fill-rule="evenodd" clip-rule="evenodd" d="M47.2503 11.187L45.7664 11.7073L46.6143 12.967L48.0187 12.3098L47.2503 11.187Z" fill="#F6A91C"/>
<path fill-rule="evenodd" clip-rule="evenodd" d="M48.1247 12.5015L46.7733 13.1861L47.6742 14.4458L48.9461 13.6242L48.1247 12.5015Z" fill="#F6A91C"/>
<path fill-rule="evenodd" clip-rule="evenodd" d="M49.0521 13.7886L47.8067 14.6375L48.7341 15.9793L49.8735 14.9661L49.0521 13.7886Z" fill="#F6A91C"/>
<path fill-rule="evenodd" clip-rule="evenodd" d="M45.5544 11.7622L46.4553 13.0493L44.6005 13.8982L43.4081 12.529L45.5544 11.7622Z" fill="#F6A91C"/>
<path fill-rule="evenodd" clip-rule="evenodd" d="M46.5878 13.2681L44.786 14.117L46.0049 15.541L47.5152 14.5551L46.5878 13.2681Z" fill="#F6A91C"/>
<path fill-rule="evenodd" clip-rule="evenodd" d="M47.6477 14.7471L46.1904 15.7329L47.4357 17.1843L48.6016 16.0889L47.6477 14.7471Z" fill="#F6A91C"/>
<path d="M49.1846 10.0918L42.1628 12.2278L47.3563 18.1976L51.8078 13.8434L49.1846 10.0918Z" stroke="#F6A91C" stroke-width="0.596967" stroke-miterlimit="22.9256"/>
<path fill-rule="evenodd" clip-rule="evenodd" d="M21.7333 57.7679L22.7932 56.4534L21.5744 55.9331L20.6734 57.3297L21.7333 57.7679Z" fill="#F6A91C"/>
<path fill-rule="evenodd" clip-rule="evenodd" d="M20.488 57.2475L21.3359 55.8235L20.0905 55.3032L19.4016 56.782L20.488 57.2475Z" fill="#F6A91C"/>
<path fill-rule="evenodd" clip-rule="evenodd" d="M19.2426 56.6998L19.905 55.221L18.5802 54.6733L18.1032 56.2342L19.2426 56.6998Z" fill="#F6A91C"/>
<path fill-rule="evenodd" clip-rule="evenodd" d="M22.8992 56.2889L23.9061 55.0292L22.5018 54.4268L21.6538 55.796L22.8992 56.2889Z" fill="#F6A91C"/>
<path fill-rule="evenodd" clip-rule="evenodd" d="M21.4419 55.6865L22.2633 54.3173L20.8324 53.7148L20.17 55.1662L21.4419 55.6865Z" fill="#F6A91C"/>
<path fill-rule="evenodd" clip-rule="evenodd" d="M19.9845 55.0568L20.6204 53.6328L19.1101 53.0029L18.6331 54.5091L19.9845 55.0568Z" fill="#F6A91C"/>
<path fill-rule="evenodd" clip-rule="evenodd" d="M24.0651 54.8649L22.6077 54.2624L23.8001 52.4824L25.5224 53.0027L24.0651 54.8649Z" fill="#F6A91C"/>
<path fill-rule="evenodd" clip-rule="evenodd" d="M22.3693 54.1528L23.4822 52.4002L21.7068 51.8525L20.9119 53.5504L22.3693 54.1528Z" fill="#F6A91C"/>
<path fill-rule="evenodd" clip-rule="evenodd" d="M20.6734 53.4682L21.4154 51.7977L19.5871 51.2227L19.1631 52.8383L20.6734 53.4682Z" fill="#F6A91C"/>
<path d="M21.8128 58.3704L26.7678 52.5649L19.1101 50.292L17.5468 56.5904L21.8128 58.3704Z" stroke="#F6A91C" stroke-width="0.596967" stroke-miterlimit="22.9256"/>
<path fill-rule="evenodd" clip-rule="evenodd" d="M12.5388 53.3039L13.9696 52.455L12.9892 51.5239L11.6909 52.4824L12.5388 53.3039Z" fill="#F6A91C"/>
<path fill-rule="evenodd" clip-rule="evenodd" d="M11.5584 52.3457L12.8302 51.3598L11.8498 50.4014L10.684 51.5241L11.5584 52.3457Z" fill="#F6A91C"/>
<path fill-rule="evenodd" clip-rule="evenodd" d="M10.5515 51.387L11.6909 50.2368L10.6575 49.251L9.65056 50.538L10.5515 51.387Z" fill="#F6A91C"/>
<path fill-rule="evenodd" clip-rule="evenodd" d="M14.1286 52.3456L15.5065 51.524L14.3936 50.4561L13.1482 51.4145L14.1286 52.3456Z" fill="#F6A91C"/>
<path fill-rule="evenodd" clip-rule="evenodd" d="M12.9892 51.2227L14.2346 50.2643L13.0687 49.1963L11.9558 50.2917L12.9892 51.2227Z" fill="#F6A91C"/>
<path fill-rule="evenodd" clip-rule="evenodd" d="M15.7184 51.4419L14.5526 50.3466L16.2749 49.1143L17.7057 50.237L15.7184 51.4419Z" fill="#F6A91C"/>
<path fill-rule="evenodd" clip-rule="evenodd" d="M14.3671 50.1549L16.0099 48.9226L14.5261 47.7725L13.2012 49.0595L14.3671 50.1549Z" fill="#F6A91C"/>
<path fill-rule="evenodd" clip-rule="evenodd" d="M13.0157 48.8953L14.2876 47.6082L12.7773 46.4033L11.8233 47.7452L13.0157 48.8953Z" fill="#F6A91C"/>
<path d="M12.4063 53.8793L19.0041 50.2646L12.6448 45.3628L9.04112 50.648L12.4063 53.8793Z" stroke="#F6A91C" stroke-width="0.596967" stroke-miterlimit="22.9256"/>
<path fill-rule="evenodd" clip-rule="evenodd" d="M11.7968 50.1547L12.9097 49.0594L11.7174 47.8818L10.737 49.1415L11.7968 50.1547Z" fill="#F6A91C"/>
<path fill-rule="evenodd" clip-rule="evenodd" d="M5.38449 45.6365L7.05382 45.3627L6.44438 44.1304L4.88104 44.5411L5.38449 45.6365Z" fill="#F6A91C"/>
<path fill-rule="evenodd" clip-rule="evenodd" d="M4.77505 44.3492L6.33839 43.9111L5.75545 42.624L4.2451 43.2539L4.77505 44.3492Z" fill="#F6A91C"/>
<path fill-rule="evenodd" clip-rule="evenodd" d="M4.16561 43.0625L5.64946 42.4053L5.01353 41.0908L3.63567 41.9123L4.16561 43.0625Z" fill="#F6A91C"/>
<path fill-rule="evenodd" clip-rule="evenodd" d="M7.21281 45.335L8.82915 45.0885L8.16671 43.6646L6.62987 44.0753L7.21281 45.335Z" fill="#F6A91C"/>
<path fill-rule="evenodd" clip-rule="evenodd" d="M6.52388 43.8564L8.06073 43.4182L7.3453 41.9395L5.91444 42.5419L6.52388 43.8564Z" fill="#F6A91C"/>
<path fill-rule="evenodd" clip-rule="evenodd" d="M5.83494 42.3504L7.2393 41.7205L6.52387 40.187L5.17251 40.9812L5.83494 42.3504Z" fill="#F6A91C"/>
<path fill-rule="evenodd" clip-rule="evenodd" d="M9.04112 45.0889L8.35219 43.6101L10.419 43.0898L11.3729 44.7055L9.04112 45.0889Z" fill="#F6A91C"/>
<path fill-rule="evenodd" clip-rule="evenodd" d="M8.2462 43.3363L10.2335 42.7886L9.22661 41.1455L7.53078 41.8575L8.2462 43.3363Z" fill="#F6A91C"/>
<path fill-rule="evenodd" clip-rule="evenodd" d="M7.42478 41.6384L9.06761 40.899L8.06071 39.2012L6.68285 40.0775L7.42478 41.6384Z" fill="#F6A91C"/>
<path d="M5.04003 46.1295L12.5918 45.2258L8.3257 38.1333L2.99974 41.7754L5.04003 46.1295Z" stroke="#F6A91C" stroke-width="0.596967" stroke-miterlimit="22.9256"/>
<path fill-rule="evenodd" clip-rule="evenodd" d="M1.09193 35.9969L2.78776 36.3529L2.62877 34.9563L0.985939 34.7646L1.09193 35.9969Z" fill="#F6A91C"/>
<path fill-rule="evenodd" clip-rule="evenodd" d="M0.959437 34.5459L2.62877 34.6828L2.46978 33.2314L0.82695 33.2862L0.959437 34.5459Z" fill="#F6A91C"/>
<path fill-rule="evenodd" clip-rule="evenodd" d="M0.826952 33.0946L2.46979 33.0125L2.3108 31.5063L0.694466 31.7802L0.826952 33.0946Z" fill="#F6A91C"/>
<path fill-rule="evenodd" clip-rule="evenodd" d="M2.97323 36.4079L4.58957 36.7639L4.43058 35.1208L2.81425 34.9565L2.97323 36.4079Z" fill="#F6A91C"/>
<path fill-rule="evenodd" clip-rule="evenodd" d="M2.81425 34.7103L4.43059 34.8472L4.24511 33.1768L2.65527 33.2315L2.81425 34.7103Z" fill="#F6A91C"/>
<path fill-rule="evenodd" clip-rule="evenodd" d="M2.65527 33.0125L4.21861 32.9303L4.05963 31.1777L2.49628 31.479L2.65527 33.0125Z" fill="#F6A91C"/>
<path fill-rule="evenodd" clip-rule="evenodd" d="M4.80155 36.8189L4.64256 35.1484L6.78885 35.3949L7.15981 37.2844L4.80155 36.8189Z" fill="#F6A91C"/>
<path fill-rule="evenodd" clip-rule="evenodd" d="M4.64257 34.8468L6.73586 35.0659L6.3384 33.0942L4.45709 33.1764L4.64257 34.8468Z" fill="#F6A91C"/>
<path fill-rule="evenodd" clip-rule="evenodd" d="M4.40409 32.9025L6.2854 32.8204L5.88794 30.7939L4.2451 31.1499L4.40409 32.9025Z" fill="#F6A91C"/>
<path d="M0.800453 36.2708L8.2992 38.1603L6.65636 29.8354L0.349998 31.369L0.800453 36.2708Z" stroke="#F6A91C" stroke-width="0.596967" stroke-miterlimit="22.9256"/>
<path fill-rule="evenodd" clip-rule="evenodd" d="M49.582 48.6213L48.8666 47.1426L47.9392 48.0463L48.7606 49.4155L49.582 48.6213Z" fill="#F6A91C"/>
<path fill-rule="evenodd" clip-rule="evenodd" d="M48.6283 49.5523L47.7804 48.2104L46.8265 49.1415L47.8069 50.3464L48.6283 49.5523Z" fill="#F6A91C"/>
<path fill-rule="evenodd" clip-rule="evenodd" d="M47.6742 50.4832L46.6673 49.2783L45.6869 50.2368L46.7998 51.3048L47.6742 50.4832Z" fill="#F6A91C"/>
<path fill-rule="evenodd" clip-rule="evenodd" d="M48.7871 46.9782L48.1247 45.5542L47.0648 46.5948L47.8597 47.9092L48.7871 46.9782Z" fill="#F6A91C"/>
<path fill-rule="evenodd" clip-rule="evenodd" d="M47.6742 48.0463L46.8528 46.7593L45.7664 47.8273L46.7203 49.0048L47.6742 48.0463Z" fill="#F6A91C"/>
<path fill-rule="evenodd" clip-rule="evenodd" d="M46.5613 49.1418L45.6074 47.9917L44.468 49.0871L45.5544 50.1277L46.5613 49.1418Z" fill="#F6A91C"/>
<path fill-rule="evenodd" clip-rule="evenodd" d="M48.0452 45.3625L46.9588 46.4304L45.8989 44.6505L47.0383 43.2812L48.0452 45.3625Z" fill="#F6A91C"/>
<path fill-rule="evenodd" clip-rule="evenodd" d="M46.7468 46.5948L45.7134 44.897L44.5475 46.2936L45.6604 47.6902L46.7468 46.5948Z" fill="#F6A91C"/>
<path fill-rule="evenodd" clip-rule="evenodd" d="M45.5014 47.8545L44.3886 46.5127L43.1697 47.9367L44.3356 48.9773L45.5014 47.8545Z" fill="#F6A91C"/>
<path d="M50.112 48.8128L47.1708 41.9941L42.1893 47.9913L46.8793 51.9346L50.112 48.8128Z" stroke="#F6A91C" stroke-width="0.596967" stroke-miterlimit="22.9256"/>
<path fill-rule="evenodd" clip-rule="evenodd" d="M41.6858 55.4127L41.6063 53.7148L40.361 54.2078L40.6259 55.8234L41.6858 55.4127Z" fill="#F6A91C"/>
<path fill-rule="evenodd" clip-rule="evenodd" d="M40.4404 55.9057L40.149 54.29L38.9036 54.783L39.3541 56.3165L40.4404 55.9057Z" fill="#F6A91C"/>
<path fill-rule="evenodd" clip-rule="evenodd" d="M39.1951 56.3709L38.6916 54.8374L37.3932 55.3577L38.0557 56.8365L39.1951 56.3709Z" fill="#F6A91C"/>
<path fill-rule="evenodd" clip-rule="evenodd" d="M41.5798 53.5503L41.5003 51.9072L40.096 52.4549L40.3345 54.0432L41.5798 53.5503Z" fill="#F6A91C"/>
<path fill-rule="evenodd" clip-rule="evenodd" d="M40.1225 54.098L39.8575 52.5371L38.4001 53.1122L38.8506 54.6183L40.1225 54.098Z" fill="#F6A91C"/>
<path fill-rule="evenodd" clip-rule="evenodd" d="M38.6386 54.6731L38.1882 53.1943L36.6778 53.7694L37.3138 55.1934L38.6386 54.6731Z" fill="#F6A91C"/>
<path fill-rule="evenodd" clip-rule="evenodd" d="M41.5268 51.6885L40.0695 52.2636L39.7515 50.155L41.3414 49.3335L41.5268 51.6885Z" fill="#F6A91C"/>
<path fill-rule="evenodd" clip-rule="evenodd" d="M39.8045 52.3458L39.4866 50.292L37.8437 51.1409L38.3472 52.9209L39.8045 52.3458Z" fill="#F6A91C"/>
<path fill-rule="evenodd" clip-rule="evenodd" d="M38.1352 53.003L37.5787 51.2778L35.8829 52.1541L36.6248 53.6055L38.1352 53.003Z" fill="#F6A91C"/>
<path d="M42.1363 55.796L41.9773 48.1558L34.929 51.7979L37.8702 57.439L42.1363 55.796Z" stroke="#F6A91C" stroke-width="0.596967" stroke-miterlimit="22.9256"/>
<path fill-rule="evenodd" clip-rule="evenodd" d="M31.9613 58.4799L32.4647 56.8643H31.1664L30.8219 58.4525L31.9613 58.4799Z" fill="#F6A91C"/>
<path fill-rule="evenodd" clip-rule="evenodd" d="M30.6364 58.4521L30.9279 56.8638L29.603 56.8364L29.4706 58.4521H30.6364Z" fill="#F6A91C"/>
<path fill-rule="evenodd" clip-rule="evenodd" d="M29.2851 58.4248L29.3911 56.8365L27.9867 56.8091L28.0927 58.4248H29.2851Z" fill="#F6A91C"/>
<path fill-rule="evenodd" clip-rule="evenodd" d="M32.5177 56.6996L33.0212 55.1661L31.5108 55.1387L31.1929 56.6996H32.5177Z" fill="#F6A91C"/>
<path fill-rule="evenodd" clip-rule="evenodd" d="M30.9544 56.6722L31.2459 55.1113H29.7355L29.603 56.6722H30.9544Z" fill="#F6A91C"/>
<path fill-rule="evenodd" clip-rule="evenodd" d="M29.3911 56.6449L29.4971 55.1114L27.9072 55.084L27.9867 56.6449H29.3911Z" fill="#F6A91C"/>
<path fill-rule="evenodd" clip-rule="evenodd" d="M33.1007 54.9746L31.5638 54.9472L32.0143 52.866L33.7631 52.7017L33.1007 54.9746Z" fill="#F6A91C"/>
<path fill-rule="evenodd" clip-rule="evenodd" d="M31.2989 54.9195L31.6963 52.8931L29.868 53.0848L29.7355 54.9195H31.2989Z" fill="#F6A91C"/>
<path fill-rule="evenodd" clip-rule="evenodd" d="M29.497 54.9197L29.603 53.1123L27.7217 53.2766L27.8807 54.8923L29.497 54.9197Z" fill="#F6A91C"/>
<path d="M32.2263 58.9998L34.77 51.8525L26.9798 52.5919L27.6952 58.9451L32.2263 58.9998Z" stroke="#F6A91C" stroke-width="0.596967" stroke-miterlimit="22.9256"/>
<path fill-rule="evenodd" clip-rule="evenodd" d="M1.2244 24.9885L2.60226 25.9743L2.97323 24.6599L1.56887 23.8657L1.2244 24.9885Z" fill="#F6A91C"/>
<path fill-rule="evenodd" clip-rule="evenodd" d="M1.62186 23.6741L3.05272 24.4408L3.45018 23.099L1.96633 22.5239L1.62186 23.6741Z" fill="#F6A91C"/>
<path fill-rule="evenodd" clip-rule="evenodd" d="M2.01933 22.3324L3.50318 22.9074L3.90064 21.5108L2.3903 21.1274L2.01933 22.3324Z" fill="#F6A91C"/>
<path fill-rule="evenodd" clip-rule="evenodd" d="M2.73476 26.0566L4.05962 26.9877L4.48358 25.5089L3.13222 24.7422L2.73476 26.0566Z" fill="#F6A91C"/>
<path fill-rule="evenodd" clip-rule="evenodd" d="M3.21171 24.523L4.58957 25.2624L5.01353 23.7289L3.58267 23.1538L3.21171 24.523Z" fill="#F6A91C"/>
<path fill-rule="evenodd" clip-rule="evenodd" d="M3.66216 22.9621L5.09302 23.4824L5.56997 21.8941L4.08612 21.5381L3.66216 22.9621Z" fill="#F6A91C"/>
<path fill-rule="evenodd" clip-rule="evenodd" d="M4.19211 27.1522L4.66906 25.5913L6.47088 26.6319L6.12641 28.4667L4.19211 27.1522Z" fill="#F6A91C"/>
<path fill-rule="evenodd" clip-rule="evenodd" d="M4.74856 25.3446L6.52388 26.3304L6.89484 24.4409L5.19901 23.7837L4.74856 25.3446Z" fill="#F6A91C"/>
<path fill-rule="evenodd" clip-rule="evenodd" d="M5.25201 23.5375L6.92134 24.1673L7.2923 22.2231L5.72896 21.9492L5.25201 23.5375Z" fill="#F6A91C"/>
<path d="M0.667969 25.1253L6.65636 29.6985L8.16671 21.6749L2.01933 20.6069L0.667969 25.1253Z" stroke="#F6A91C" stroke-width="0.596967" stroke-miterlimit="22.9256"/>
<path fill-rule="evenodd" clip-rule="evenodd" d="M4.88104 15.1303L5.83495 16.5269L6.62987 15.4589L5.59647 14.1992L4.88104 15.1303Z" fill="#F6A91C"/>
<path fill-rule="evenodd" clip-rule="evenodd" d="M5.70245 14.0351L6.78884 15.2674L7.61026 14.1446L6.44438 13.0767L5.70245 14.0351Z" fill="#F6A91C"/>
<path fill-rule="evenodd" clip-rule="evenodd" d="M6.55038 12.9121L7.74276 13.9801L8.61718 12.83L7.29231 11.9263L6.55038 12.9121Z" fill="#F6A91C"/>
<path fill-rule="evenodd" clip-rule="evenodd" d="M5.91444 16.6637L6.84185 18.0329L7.76926 16.8007L6.73586 15.5684L5.91444 16.6637Z" fill="#F6A91C"/>
<path fill-rule="evenodd" clip-rule="evenodd" d="M6.89484 15.404L7.92824 16.6089L8.88214 15.3219L7.74276 14.2812L6.89484 15.404Z" fill="#F6A91C"/>
<path fill-rule="evenodd" clip-rule="evenodd" d="M7.87524 14.117L9.01463 15.1302L10.0215 13.8158L8.74966 12.9395L7.87524 14.117Z" fill="#F6A91C"/>
<path fill-rule="evenodd" clip-rule="evenodd" d="M6.92133 18.2246L7.87524 16.9375L9.2266 18.6079L8.2727 20.1689L6.92133 18.2246Z" fill="#F6A91C"/>
<path fill-rule="evenodd" clip-rule="evenodd" d="M8.06071 16.746L9.38558 18.3343L10.366 16.6913L9.01462 15.459L8.06071 16.746Z" fill="#F6A91C"/>
<path fill-rule="evenodd" clip-rule="evenodd" d="M9.17361 15.2397L10.525 16.4447L11.5319 14.7742L10.1805 13.9253L9.17361 15.2397Z" fill="#F6A91C"/>
<path d="M4.3246 15.0207L8.3257 21.5107L12.5388 14.5825L7.13332 11.2964L4.3246 15.0207Z" stroke="#F6A91C" stroke-width="0.596967" stroke-miterlimit="22.9256"/>
<path d="M70.9578 32.2053C72.8337 32.2053 73.7091 31.0421 73.7091 29.9435C73.7091 28.5865 73.2088 27.5525 69.9573 26.7771C66.4558 25.8724 65.0176 24.063 65.2677 21.4135C65.3928 19.5394 67.3311 17.1484 70.8327 17.1484C73.9592 17.1484 76.1477 19.0871 76.1477 21.3488C76.1477 21.8012 73.2714 21.8012 73.2088 21.3488C73.0212 19.4102 72.0208 18.6994 70.5201 18.6994C69.2695 18.6994 68.0815 19.6041 68.0815 21.0257C68.0815 22.3182 68.5192 23.6106 71.3955 24.1922C75.5849 25.0323 76.7729 27.294 76.7729 29.2973C76.7729 32.1406 74.2093 33.8208 70.8953 33.8208C67.1436 33.8208 64.6424 32.2699 64.6424 29.2327C64.6424 28.7803 67.8314 28.7803 67.8314 29.2327C67.8939 32.0114 69.9573 32.2699 70.9578 32.2053Z" fill="white"/>
<path d="M88.8409 19.4103C88.8409 18.5056 88.4658 17.8594 87.9655 17.4071C90.154 16.6316 91.7798 17.4717 91.7798 18.958V28.1342C91.7798 31.9469 88.966 33.8856 85.777 33.8856C82.5881 33.8856 79.7118 31.9469 79.7118 28.1342V19.4103C79.7118 18.5056 79.3991 17.8594 78.8364 17.4071C81.0249 16.6316 82.5881 17.4717 82.5881 18.958V28.4573C82.5881 30.7191 83.7761 32.2054 85.7145 32.2054C87.6529 32.2054 88.8409 30.9776 88.8409 28.7158V19.4103Z" fill="white"/>
<path d="M108.037 33.4977C108.037 33.9501 105.223 33.8854 104.973 33.4977L98.2827 21.672V33.4977C98.2827 33.9501 95.3439 33.9501 95.3439 33.4977V19.6687C95.3439 19.0871 95.1563 17.6008 94.6561 17.1484C96.5945 16.6961 97.5949 17.4069 98.2202 18.4409L105.098 30.5897V19.4102C105.098 18.9579 105.098 17.6008 104.598 17.1484C106.286 16.6315 108.037 17.2131 108.037 18.6994V33.4977Z" fill="white"/>
<path d="M124.357 33.4977C124.357 33.9501 121.543 33.8854 121.293 33.4977L114.603 21.672V33.4977C114.603 33.9501 111.664 33.9501 111.664 33.4977V19.6687C111.664 19.0871 111.476 17.6008 110.976 17.1484C112.914 16.6961 113.915 17.4069 114.54 18.4409L121.418 30.5897V19.4102C121.418 18.9579 121.418 17.6008 120.918 17.1484C122.606 16.6315 124.357 17.2131 124.357 18.6994V33.4977Z" fill="white"/>
<path d="M131.735 26.3894L128.109 19.4103C127.921 19.0226 127.171 17.6655 126.483 17.407C128.171 16.8901 130.11 16.6316 130.735 17.9886L133.987 24.2569L136.55 19.6688C137.175 18.441 137.426 17.4717 136.863 17.1486C138.551 16.6316 139.239 17.8594 138.739 18.8287L134.612 26.3248V33.5624C134.612 34.0148 131.673 34.0148 131.673 33.5624V26.3894H131.735Z" fill="white"/>
<path d="M155.434 17.1484C157.685 17.1484 160.061 17.73 161.499 19.9272C161.937 20.5734 159.498 22.512 159.06 21.5427C158.122 19.6041 157.122 18.764 155.684 18.764C153.12 18.6347 151.119 21.4135 150.994 25.2908C150.869 29.2973 152.745 32.2053 155.684 32.3345C158.06 32.4638 159.873 30.9775 160.811 28.5218C160.999 28.0695 162.625 28.9096 162.437 29.3619C161.124 32.2699 158.685 34.0147 155.309 33.9501C150.807 33.8208 147.868 30.5251 147.93 25.6139C147.993 20.4441 151.62 17.2131 155.434 17.1484Z" fill="white"/>
<path d="M165.188 19.6688C165.188 19.2165 165.188 17.8594 164.688 17.407C165.188 16.9547 168.19 17.0839 168.627 17.407C168.127 17.8594 168.127 19.2165 168.127 19.6688V31.3007C168.127 31.753 168.127 33.1101 168.627 33.5624C168.19 33.8856 165.188 34.0148 164.688 33.5624C165.188 33.1101 165.188 31.753 165.188 31.3007V19.6688Z" fill="white"/>
<path d="M175.756 20.5734C175.756 18.9578 175.693 18.764 174.63 18.764H172.692C172.254 18.764 170.941 18.764 170.503 19.2809C170.19 18.0531 170.378 17.2131 171.504 17.2777C172.191 17.3423 173.63 17.3423 173.942 17.3423H180.32C180.633 17.3423 182.071 17.3423 182.759 17.2777C183.884 17.2131 184.072 17.9885 183.759 19.2809C183.321 18.764 182.008 18.764 181.571 18.764H179.632C178.569 18.764 178.507 18.9578 178.507 20.5734V33.4977C178.507 33.9501 175.568 33.9501 175.568 33.4977V20.5734H175.756Z" fill="white"/>
<path d="M190.137 26.3894L186.51 19.4103C186.323 19.0226 185.572 17.6655 184.885 17.407C186.573 16.8901 188.511 16.6316 189.137 17.9886L192.388 24.2569L194.952 19.6688C195.577 18.441 195.827 17.4717 195.264 17.1486C196.953 16.6316 197.64 17.8594 197.14 18.8287L193.013 26.3248V33.5624C193.013 34.0148 190.075 34.0148 190.075 33.5624V26.3894H190.137Z" fill="white"/>
<path d="M98.783 39.766C98.783 39.1198 98.5954 38.9905 98.3453 38.9905C98.1577 38.9905 97.9076 39.1197 97.72 39.3782C97.72 39.4429 97.72 39.5721 97.72 39.7013V41.9631C97.6575 42.0277 97.0947 42.0923 96.9071 41.9631V39.8306C96.9071 39.1844 96.7195 39.0551 96.4694 39.0551C96.2818 39.0551 96.0317 39.1844 95.9067 39.4429V41.9631C95.8441 42.0277 95.2814 42.0923 95.0938 41.9631V39.3136C95.0938 38.9905 95.0313 38.8613 94.8437 38.6674C94.9687 38.6028 95.594 38.5381 95.7191 38.6674C95.8441 38.7966 95.8441 38.9259 95.8441 39.0551C96.0943 38.732 96.4069 38.6028 96.7195 38.6028C97.1572 38.6028 97.4699 38.7966 97.5949 39.1198C97.9076 38.732 98.2202 38.6028 98.5329 38.6028C99.1582 38.6028 99.5333 38.9905 99.5333 39.7013V41.3169C99.5333 41.64 99.5959 41.7692 99.7834 41.9631C99.6584 42.0277 99.0331 42.0923 98.908 41.9631C98.783 41.8339 98.783 41.7046 98.783 41.5754V39.766Z" fill="white"/>
<path d="M103.035 41.3173C103.035 41.6404 103.097 41.7697 103.285 41.9635C103.16 42.0282 102.535 42.0928 102.41 41.9635C102.285 41.8343 102.285 41.7697 102.285 41.5758C102.222 41.7697 101.847 42.0282 101.409 42.0282C100.909 42.0282 100.409 41.705 100.409 41.1234C100.409 40.2834 101.409 39.7664 102.347 40.0895V39.7018C102.347 39.1848 102.16 39.0556 101.847 39.0556C101.597 39.0556 101.472 39.4433 101.284 39.5079C100.846 39.7018 100.284 38.9263 100.659 38.8617C100.971 38.8617 101.097 38.5386 101.847 38.5386C102.597 38.5386 103.097 38.9263 103.097 39.7018V41.3173H103.035ZM102.285 40.5418C101.784 40.2834 101.222 40.5419 101.222 41.0588C101.222 41.3173 101.347 41.4465 101.659 41.4465C102.034 41.4465 102.285 40.9942 102.285 40.7357V40.5418Z" fill="white"/>
<path d="M106.662 41.1233C106.849 41.3172 107.037 41.4464 107.224 41.3172C107.224 41.4464 107.037 41.8988 106.662 41.9634C106.349 42.028 106.224 41.8988 106.036 41.7049L105.036 40.7356L104.786 41.1233V41.3172C104.786 41.6403 104.848 41.7695 105.036 41.9634C104.911 42.028 104.286 42.0927 104.16 41.9634C104.035 41.8342 104.035 41.7695 104.035 41.5757V37.5045C104.035 37.1814 103.973 37.0522 103.785 36.8583C103.91 36.7937 104.536 36.7291 104.661 36.8583C104.786 36.9876 104.786 37.0522 104.786 37.246V40.4771L105.849 38.8616C105.974 38.6677 106.099 38.6031 106.286 38.6031C106.474 38.6031 106.724 38.7969 106.787 38.9262C106.474 38.9262 106.286 39.1201 106.099 39.3785L105.536 40.0894L106.662 41.1233Z" fill="white"/>
<path d="M108.412 40.348C108.412 40.865 108.788 41.5112 109.413 41.5112C109.788 41.5112 110.038 41.4465 110.351 41.1234C110.476 41.0588 110.663 41.2527 110.663 41.3819C110.413 41.7697 109.976 41.9635 109.413 41.9635C108.475 41.9635 107.662 41.2527 107.599 40.4126C107.537 39.3787 108.35 38.5386 109.225 38.5386C110.038 38.5386 110.851 39.0556 110.851 40.0895C110.851 40.1541 110.788 40.2834 110.663 40.2834L108.412 40.348ZM109.851 39.8956C109.976 39.8956 110.038 39.831 110.038 39.7664C110.038 39.2494 109.6 39.0556 109.288 39.0556C108.85 39.0556 108.475 39.314 108.412 39.8956H109.851Z" fill="white"/>
<path d="M114.665 42.1571L113.79 39.3784C113.665 39.0553 113.54 38.9906 113.352 38.926C113.54 38.6675 113.79 38.5383 114.04 38.6029C114.227 38.6029 114.478 38.7321 114.54 38.9906L115.103 40.9939L115.603 39.3784C115.728 39.0553 115.666 38.926 115.478 38.7321C115.603 38.6675 115.916 38.5383 116.103 38.6675C116.228 38.7968 116.166 38.926 116.166 39.1199L114.665 43.5788C114.603 43.708 114.54 43.9019 114.29 43.9019C114.102 43.9019 113.915 43.7726 113.852 43.6434C114.165 43.6434 114.29 43.5141 114.353 43.191L114.665 42.1571Z" fill="white"/>
<path d="M118.292 42.028C117.542 42.028 116.729 41.4464 116.666 40.477C116.604 39.4431 117.291 38.603 118.292 38.603C119.292 38.603 119.98 39.3785 119.918 40.477C119.855 41.4464 119.042 42.028 118.292 42.028ZM119.042 40.3478C119.105 39.637 118.855 38.9908 118.292 38.9908C117.667 38.9908 117.479 39.5724 117.542 40.3478C117.542 40.8648 117.729 41.511 118.292 41.511C118.855 41.511 119.042 40.9294 119.042 40.3478Z" fill="white"/>
<path d="M122.544 38.6674C122.606 38.6028 123.169 38.5381 123.357 38.6674V41.3169C123.357 41.64 123.419 41.7692 123.607 41.9631C123.482 42.0277 122.856 42.0923 122.731 41.9631C122.606 41.8339 122.606 41.7046 122.606 41.5754C122.294 41.8985 121.981 42.0277 121.668 42.0277C121.043 42.0277 120.668 41.64 120.668 40.9291V39.3136C120.668 38.9905 120.605 38.8613 120.418 38.6674C120.543 38.6028 121.168 38.5381 121.293 38.6674C121.418 38.7966 121.418 38.9259 121.418 39.0551V40.7353C121.418 41.3815 121.606 41.5107 121.856 41.5107C122.044 41.5107 122.356 41.3815 122.544 41.123V38.6674Z" fill="white"/>
<path d="M125.107 41.8986C125.045 41.9633 124.482 42.0279 124.295 41.8986V39.2492C124.295 38.926 124.232 38.7968 124.044 38.6029C124.17 38.5383 124.795 38.4737 124.92 38.6029C125.045 38.7322 125.045 38.8614 125.045 38.9907C125.233 38.7322 125.545 38.5383 125.858 38.5383C126.233 38.5383 126.421 38.7322 126.608 38.7968C126.921 38.8614 126.421 39.6369 125.983 39.443C125.795 39.3784 125.795 39.0553 125.608 38.9907C125.483 38.9261 125.233 39.1199 125.045 39.3784V41.8986H125.107Z" fill="white"/>
<path d="M130.422 42.028C129.797 42.028 129.672 41.8341 129.234 41.7049C128.922 41.6403 129.422 40.8648 129.86 41.0587C130.047 41.1233 130.11 41.511 130.485 41.5756C130.547 41.5756 130.86 41.511 130.86 41.1879C130.86 40.6063 129.297 40.7355 129.297 39.637C129.297 39.0554 129.797 38.603 130.547 38.603C131.235 38.603 131.36 38.8615 131.673 38.9261C132.048 38.9908 131.485 39.7662 131.048 39.5724C130.86 39.5077 130.798 39.12 130.547 39.12C130.36 39.12 130.235 39.2492 130.235 39.5077C130.235 40.1539 131.798 39.8955 131.798 41.0587C131.673 41.511 131.235 42.028 130.422 42.028Z" fill="white"/>
<path d="M134.362 38.6674C134.424 38.6028 134.987 38.5381 135.175 38.6674V41.3169C135.175 41.64 135.237 41.7692 135.425 41.9631C135.3 42.0277 134.674 42.0923 134.549 41.9631C134.424 41.8339 134.424 41.7046 134.424 41.5754C134.112 41.8985 133.799 42.0277 133.486 42.0277C132.861 42.0277 132.486 41.64 132.486 40.9291V39.3136C132.486 38.9905 132.423 38.8613 132.236 38.6674C132.361 38.6028 132.986 38.5381 133.111 38.6674C133.236 38.7966 133.236 38.9259 133.236 39.0551V40.7353C133.236 41.3815 133.424 41.5107 133.674 41.5107C133.861 41.5107 134.174 41.3815 134.362 41.123V38.6674Z" fill="white"/>
<path d="M137.988 39.7661C137.988 39.1199 137.801 38.9907 137.551 38.9907C137.363 38.9907 137.05 39.1199 136.863 39.3784V41.8986C136.8 41.9633 136.238 42.0279 136.05 41.8986V39.2492C136.05 38.926 135.987 38.7968 135.8 38.6029C135.925 38.5383 136.55 38.4737 136.675 38.6029C136.8 38.7322 136.8 38.8614 136.8 38.9907C137.113 38.6676 137.426 38.5383 137.738 38.5383C138.364 38.5383 138.739 38.9261 138.739 39.6369V41.2524C138.739 41.5755 138.801 41.7048 138.989 41.8986C138.864 41.9633 138.238 42.0279 138.113 41.8986C137.988 41.7694 137.988 41.6402 137.988 41.5109V39.7661Z" fill="white"/>
<path d="M141.678 39.7661C141.678 39.1199 141.49 38.9907 141.24 38.9907C141.052 38.9907 140.74 39.1199 140.552 39.3784V41.8986C140.489 41.9633 139.927 42.0279 139.739 41.8986V39.2492C139.739 38.926 139.677 38.7968 139.489 38.6029C139.614 38.5383 140.239 38.4737 140.364 38.6029C140.489 38.7322 140.489 38.8614 140.489 38.9907C140.802 38.6676 141.115 38.5383 141.427 38.5383C142.053 38.5383 142.428 38.9261 142.428 39.6369V41.2524C142.428 41.5755 142.49 41.7048 142.678 41.8986C142.553 41.9633 141.928 42.0279 141.803 41.8986C141.678 41.7694 141.678 41.6402 141.678 41.5109V39.7661Z" fill="white"/>
<path d="M144.491 42.1571L143.616 39.3784C143.491 39.0553 143.366 38.9906 143.178 38.926C143.366 38.6675 143.616 38.5383 143.866 38.6029C144.054 38.6029 144.304 38.7321 144.366 38.9906L144.929 40.9939L145.429 39.3784C145.554 39.0553 145.492 38.926 145.304 38.7321C145.429 38.6675 145.742 38.5383 145.929 38.6675C146.054 38.7968 145.992 38.926 145.992 39.1199L144.491 43.5788C144.429 43.708 144.366 43.9019 144.116 43.9019C143.929 43.9019 143.741 43.7726 143.678 43.6434C143.991 43.6434 144.116 43.5141 144.179 43.191L144.491 42.1571Z" fill="white"/>
<path d="M148.931 39.0553H148.306C148.243 38.9907 148.243 38.7969 148.368 38.603H148.931V38.4738C148.931 37.1813 150.244 36.5351 151.182 36.8582C151.307 36.9875 151.307 37.5044 151.057 37.6337C150.431 37.3752 149.681 37.3106 149.681 38.5384V38.603H150.494C150.557 38.6676 150.557 38.9261 150.431 39.0553H149.681V41.9633C149.619 42.0926 148.931 42.0926 148.868 41.9633V39.0553H148.931Z" fill="white"/>
<path d="M153.121 38.6674C153.183 38.6028 153.746 38.5381 153.933 38.6674V41.3169C153.933 41.64 153.996 41.7692 154.184 41.9631C154.059 42.0277 153.433 42.0923 153.308 41.9631C153.183 41.8339 153.183 41.7046 153.183 41.5754C152.87 41.8985 152.558 42.0277 152.245 42.0277C151.62 42.0277 151.245 41.64 151.245 40.9291V39.3136C151.245 38.9905 151.182 38.8613 150.995 38.6674C151.12 38.6028 151.745 38.5381 151.87 38.6674C151.995 38.7966 151.995 38.9259 151.995 39.0551V40.7353C151.995 41.3815 152.183 41.5107 152.433 41.5107C152.62 41.5107 152.933 41.3815 153.121 41.123V38.6674Z" fill="white"/>
<path d="M155.184 39.0554H154.433C154.371 38.9908 154.371 38.7969 154.496 38.603H155.184V38.1507C155.184 37.9568 155.997 37.4399 155.997 37.6983V38.603H157.06C157.122 38.6677 157.122 38.8615 156.997 39.0554H156.059V40.9941C156.059 41.2525 156.184 41.3172 156.309 41.3172C156.497 41.3172 156.622 41.1233 156.622 40.9294C156.872 40.8002 157.122 41.0587 157.122 41.3172C156.934 41.6403 156.684 41.8988 156.122 41.8988C155.684 41.8988 155.246 41.5757 155.246 41.0587V39.0554H155.184Z" fill="white"/>
<path d="M159.561 38.6674C159.623 38.6028 160.186 38.5381 160.374 38.6674V41.3169C160.374 41.64 160.436 41.7692 160.624 41.9631C160.499 42.0277 159.873 42.0923 159.748 41.9631C159.623 41.8339 159.623 41.7046 159.623 41.5754C159.311 41.8985 158.998 42.0277 158.685 42.0277C158.06 42.0277 157.685 41.64 157.685 40.9291V39.3136C157.685 38.9905 157.622 38.8613 157.435 38.6674C157.56 38.6028 158.185 38.5381 158.31 38.6674C158.435 38.7966 158.435 38.9259 158.435 39.0551V40.7353C158.435 41.3815 158.623 41.5107 158.873 41.5107C159.06 41.5107 159.373 41.3815 159.561 41.123V38.6674Z" fill="white"/>
<path d="M162.062 41.8986C161.999 41.9633 161.437 42.0279 161.249 41.8986V39.2492C161.249 38.926 161.186 38.7968 160.999 38.6029C161.124 38.5383 161.749 38.4737 161.874 38.6029C161.999 38.7322 161.999 38.8614 161.999 38.9907C162.187 38.7322 162.499 38.5383 162.812 38.5383C163.187 38.5383 163.375 38.7322 163.562 38.7968C163.875 38.8614 163.375 39.6369 162.937 39.443C162.75 39.3784 162.75 39.0553 162.562 38.9907C162.437 38.9261 162.187 39.1199 161.999 39.3784V41.8986H162.062Z" fill="white"/>
<path d="M164.876 40.348C164.876 40.865 165.251 41.5112 165.876 41.5112C166.251 41.5112 166.501 41.4465 166.814 41.1234C166.939 41.0588 167.127 41.2527 167.127 41.3819C166.877 41.7697 166.439 41.9635 165.876 41.9635C164.938 41.9635 164.125 41.2527 164.063 40.4126C164 39.3787 164.813 38.5386 165.688 38.5386C166.501 38.5386 167.314 39.0556 167.314 40.0895C167.314 40.1541 167.252 40.2834 167.127 40.2834L164.876 40.348ZM166.376 39.8956C166.501 39.8956 166.564 39.831 166.564 39.7664C166.564 39.2494 166.126 39.0556 165.814 39.0556C165.376 39.0556 165.001 39.314 164.938 39.8956H166.376Z" fill="white"/>
</svg>
